<?xml version="1.0" encoding="utf-8"?>
<svg viewBox="232.206 110.625 234.276 200.589" xmlns="http://www.w3.org/2000/svg">
  <g transform="matrix(6.09864, 0.049886, -0.049518, 6.053608, 233.962708, 94.497772)" style="">
    <path d="M38.148,19.12v12.363c0,1.006-0.815,1.823-1.823,1.823h-3.951c-0.267,0-0.528-0.059-0.771-0.172l-3.182-1.479v2.006 c0,1.008-0.816,1.824-1.824,1.824H1.823C0.815,35.485,0,34.668,0,33.661V16.943c0-1.008,0.815-1.824,1.823-1.824h24.774 c1.008,0,1.824,0.816,1.824,1.824v2.006l3.182-1.482c0.24-0.113,0.504-0.17,0.771-0.17h3.951 C37.333,17.296,38.148,18.113,38.148,19.12z M20.864,13.527c2.993,0,5.429-2.436,5.429-5.43s-2.436-5.433-5.429-5.433 c-2.995,0-5.433,2.438-5.433,5.433S17.869,13.527,20.864,13.527z M6.418,13.527c2.994,0,5.43-2.436,5.43-5.43 s-2.436-5.433-5.43-5.433c-2.994,0-5.433,2.438-5.433,5.433S3.424,13.527,6.418,13.527z" style="fill: rgb(248, 248, 248);"/>
  </g>
</svg>